<svg xmlns="http://www.w3.org/2000/svg" fill="#ccc" height="80" viewBox="0 0 24 24" class="sc-bdvvtL hqAiMT"><path d="M14.6082963,16.3401481 C14.6082963,16.8257778 14.2154074,17.2186667 13.7303704,17.2186667 L10.0225185,17.2186667 C9.53777778,17.2186667 9.1442963,16.8257778 9.1442963,16.3401481 L9.1442963,16.3401481 C9.1442963,15.8545185 9.53777778,15.4616296 10.0225185,15.4616296 L13.7303704,15.4616296 C14.2154074,15.4619259 14.6082963,15.8548148 14.6082963,16.3401481 L14.6082963,16.3401481 Z"></path><rect x="10.2794074" y="13.728" width="3.19407407" height="1"></rect><path d="M18.856,19.853037 C18.856,20.1407407 18.6228148,20.3739259 18.3357037,20.3739259 L5.41718519,20.3739259 C5.13007407,20.3739259 4.89688889,20.1407407 4.89688889,19.853037 L4.89688889,18.9854815 C4.89688889,18.6977778 5.13007407,18.4645926 5.41718519,18.4645926 L18.3357037,18.4645926 C18.6228148,18.4645926 18.856,18.6977778 18.856,18.9854815 L18.856,19.853037 Z"></path><polygon points="9.776 16.8337778 7.14933333 18.768 16.6035556 18.768 13.8068148 16.8379259"></polygon><rect x="3.88592593" y="21.1395556" width="15.9816296" height="2.57362963"></rect><path d="M23.7117037,1.47881481 L20.6059259,1.47881481 C20.6204444,1.94192593 20.624,2.4882963 20.6047407,3.09066667 L22.272,3.09066667 C22.272,3.09066667 22.2580741,5.47555556 21.4832593,6.68888889 C20.9982222,7.4477037 20.1967407,7.90014815 19.8705185,8.06133333 C19.672,8.74014815 19.4225185,9.40977778 19.1128889,10.0474074 C20.0983704,9.7197037 21.7164444,9.02133333 22.5001481,7.79407407 C23.9665185,5.49777778 23.7117037,1.47881481 23.7117037,1.47881481 Z"></path><path d="M3.83792593,8.03911111 C3.48681481,7.85985185 2.73303704,7.41362963 2.27051852,6.68888889 C1.49540741,5.47555556 1.48148148,3.09096296 1.48148148,3.09096296 L3.1117037,3.09096296 C3.09274074,2.4882963 3.0962963,1.94222222 3.11111111,1.47911111 L0.0417777778,1.47911111 C0.0417777778,1.47911111 -0.213037037,5.49807407 1.25333333,7.79437037 C2.02488889,9.00237037 3.60474074,9.69777778 4.59348148,10.0322963 C4.28444444,9.392 4.03585185,8.72 3.83792593,8.03911111 Z"></path><path d="M19.7431111,0.00948148148 L3.97392593,0.00948148148 C3.97392593,0.00948148148 2.34251852,13.8705185 11.8568889,13.8705185 C21.3715556,13.8702222 19.7431111,0.00948148148 19.7431111,0.00948148148 Z M13.4663704,8.20355556 L11.8761481,7.36740741 L10.2862222,8.20355556 L10.5899259,6.432 L9.3037037,5.17777778 L11.0814815,4.91911111 L11.8764444,3.30785185 L12.6714074,4.91911111 L14.4491852,5.17777778 L13.1626667,6.432 L13.4663704,8.20355556 Z"></path></svg>