<svg xmlns="http://www.w3.org/2000/svg" height="18" viewBox="0 0 24 24" class="sc-bdfBwQ bEROaC"><g id="Artboard1" transform="matrix(0.923077,0,0,1,0,0)"><rect x="0" y="0" width="26" height="24" fill="none"></rect><g transform="matrix(1.03258,0,0,0.935083,-0.417386,0.778631)"><path d="M13.563,12C13.499,12.129 13.436,12.258 13.371,12.387C12.7,13.73 11.974,15.015 10.476,15.534C8.704,16.148 6.651,15.34 4.855,14.046C3.981,13.416 3.167,12.683 2.481,12L4.683,12C5.017,12.287 5.369,12.567 5.731,12.828C7.105,13.817 8.63,14.586 9.985,14.117C10.984,13.77 11.443,12.897 11.889,12L13.563,12ZM23.37,12C24.699,13.258 25.584,14.354 25.584,14.354L24.416,15.296C24.416,15.296 23.007,13.547 21.105,12L23.37,12Z" fill="hsl(0,0%,25%)"></path></g><g transform="matrix(1.03258,0,0,0.935083,-0.417386,0.778631)"><path d="M2.481,12C1.232,10.756 0.404,9.675 0.404,9.675L1.596,8.764C1.596,8.764 2.903,10.475 4.683,12L2.481,12ZM11.889,12C11.936,11.905 11.982,11.811 12.03,11.716C12.697,10.381 13.411,9.078 14.888,8.518C16.727,7.82 18.892,8.606 20.803,9.903C21.746,10.544 22.628,11.297 23.37,12L21.105,12C20.739,11.703 20.356,11.413 19.96,11.144C18.481,10.14 16.844,9.38 15.42,9.921C14.459,10.285 13.996,11.129 13.563,12L11.889,12Z" fill="hsl(0,0%,25%)"></path></g></g></svg>