<svg xmlns="http://www.w3.org/2000/svg" fill="rgb(36, 224, 46)" height="18" viewBox="0 0 24 24" class="sc-bdfBwQ iSTIDI"><path d="M12,-1.77635684e-15 C18.627417,-1.77635684e-15 24,5.372583 24,12 C24,18.627417 18.627417,24 12,24 C5.372583,24 7.10542736e-15,18.627417 7.10542736e-15,12 C7.10542736e-15,5.372583 5.372583,-1.77635684e-15 12,-1.77635684e-15 Z M17.9733863,3.78404949 C15.2229238,10.0873741 11.2457291,13.2782705 6.04180187,13.3567387 C3.73816342,13.3567387 2.92167027,11.3850741 3.81832744,7.8785246 C4.08105222,6.85108908 4.67224686,5.58298159 5.59191137,4.07420212 C3.03211121,6.05566118 1.75221113,8.85825642 1.75221113,12.4819878 C1.75221113,17.9175849 7.19393255,22.1350435 12,22.1350435 C15.204045,22.1350435 17.6540997,21.1702634 19.3501643,19.2407031 C17.6858807,19.7614469 16.1058309,20.0218187 14.6100147,20.0218187 C13.1141985,20.0218187 11.9729291,19.915718 11.1862065,19.7035166 C15.828232,19.2458765 18.8259475,18.432602 20.179353,17.263693 C21.5327585,16.094784 22.2564329,14.5903684 22.3503761,12.7504462 C19.8790769,15.0682365 17.4005572,16.5248325 14.9148169,17.120234 C12.4290767,17.7156354 9.61589601,17.8605555 6.47527497,17.5549942 C10.9643967,16.923701 14.4463142,15.8393821 16.9210275,14.3020372 C20.6330974,11.99602 20.8394463,11.1674358 21.546639,9.84275891 C22.0181007,8.95964096 21.8949142,8.15042086 21.1770794,7.41509861 C20.1775249,9.31802091 19.1096272,10.5688 17.9733863,11.1674358 C18.7133491,10.2843179 19.4486713,9.18801414 20.179353,7.8785246 C20.7097863,6.95575072 20.7097863,6.1593977 20.179353,5.48946556 C19.6489197,4.81953341 18.9135975,4.25106138 17.9733863,3.78404949 Z M11.0902112,1.75609756 C9.42650447,1.96966899 8.17954689,2.48274802 7.34933843,3.29533464 C6.10402573,4.51421457 4.8801771,7.6783739 4.67278754,9.47420837 C4.52253545,10.7752762 5.10926093,11.3820787 5.49769053,11.57035 C5.66272094,11.65034 6.03086803,11.6771987 6.6021318,11.6509259 C5.89721278,11.0212506 5.73117742,9.94809894 6.10402573,8.43147087 C6.69593179,6.00555826 7.59298456,5.41927761 7.6729971,5.41927761 C7.75300964,5.41927761 7.36607305,5.98019686 6.89949459,8.12577942 C6.46466774,10.1253507 6.91195896,10.9920345 7.43687493,11.3090751 C7.72526583,11.4832584 8.09389933,11.5221158 8.54277542,11.4256472 C8.39341169,8.69135746 8.60537364,6.52262186 9.17866126,4.91944043 C9.75194888,3.316259 10.3891322,2.26181138 11.0902112,1.75609756 Z"></path></svg>