<svg xmlns="http://www.w3.org/2000/svg"  viewBox="0 0 19 32" height="36"><svg viewBox="0 0 19 20" fill="hsla(0,0%,100%,0.16)" width="19" height="20" x="0" y="0"><path d="M4.795 14.99a2.06 2.06 0 00-.96-.388c-1.668-.204-2.506.518-3.107 1.008.464.128.879.364.867.97 2.347-1.605 4.159.84 2.415 2.666-.14.147.65.929.767.718.203-.365.79-1.064 1.445-1.064.964 0 1.529.68 1.823.838.267.144.793-.372.642-.675-.03-.06-.229-.204-.569-.438-1.407-.197-1.935-1.093-2.37-2.026-.276-.593-.503-1.206-.953-1.61zm9.41 0a2.06 2.06 0 01.96-.388c1.668-.204 2.507.518 3.107 1.008-.464.128-.879.364-.867.97-2.347-1.605-4.158.84-2.415 2.666.14.147-.65.929-.768.718-.202-.365-.79-1.064-1.444-1.064-.965 0-1.529.68-1.823.838-.267.144-.793-.372-.642-.675.03-.06.229-.204.569-.438 1.407-.197 1.935-1.093 2.37-2.026.276-.593.503-1.206.953-1.61zm-3.919-2.211c0-.233-.175-.423-.392-.423h-.788c-.217 0-.392.19-.392.423v5.665c0 .232.175.421.392.421h.788c.216 0 .392-.189.392-.421v-5.665zm-1.989 2.543c-.553-.139-2.074-.563-2.702-1.17-.814-.784-1.107-3.135-2.655-3.52-1.29-.32-2.448.27-2.924 1.05-.06.101.055.241.252.178 2.786-.884 2.957 1.674 2.672 2.215a.275.275 0 00-.024.057c.87-.106 1.462.043 1.893.328.447.294.732.738.975 1.231.515 1.042.822 2.335 2.513 2.512v-2.88zm2.406 0c.553-.139 2.074-.563 2.703-1.17.812-.784 1.106-3.135 2.654-3.52 1.29-.32 2.448.27 2.924 1.05.06.101-.055.241-.252.178-2.786-.884-2.957 1.674-2.672 2.215a.27.27 0 01.024.057c-.87-.106-1.462.043-1.893.328-.447.294-.732.738-.975 1.231-.515 1.042-.822 2.335-2.513 2.512v-2.88z" fill="inherit"></path><path d="M9.753.093a.39.39 0 00-.506 0C8.461.747 6.08 2.946 5.515 3.417a.434.434 0 00-.15.262c-.162.895-.949 4.817-1.12 5.764a.46.46 0 00.067.333c.37.564 1.665 2.752 2.071 3.37a.404.404 0 00.336.187h.768c.19 0 .356-.14.4-.337l.35-1.577a.416.416 0 01.399-.336h1.728c.19 0 .356.139.399.336l.35 1.577a.416.416 0 00.4.337h.768c.133 0 .259-.07.336-.187.406-.618 1.7-2.806 2.07-3.37a.457.457 0 00.067-.333c-.17-.947-.957-4.87-1.118-5.764a.435.435 0 00-.15-.262C12.92 2.946 10.537.747 9.752.093z" fill="inherit"></path></svg><svg viewBox="0 0 19 10" fill="hsla(0,0%,100%,0.16)" width="19" height="10" x="0" y="22"><path d="M0.259504 4.54746C0.272981 4.60325 0.326002 4.64198 0.386194 4.64198C0.831857 4.62418 2.60461 4.45628 3.91732 2.90727C4.49956 2.22054 4.37916 1.21884 3.64777 0.671532C2.91819 0.125197 1.85256 0.238284 1.27032 0.924899C-0.0423919 2.47305 0.17864 4.13525 0.259504 4.54746Z" fill="inherit"></path><path d="M9.46713 9.98081C9.42698 10.0064 9.37572 10.0064 9.33559 9.98081C8.88968 9.67166 6.33212 7.75166 6.33212 4.38581C6.33212 2.96661 7.70742 1.81406 9.40136 1.81406C11.0953 1.81406 12.4706 2.96661 12.4706 4.38581C12.4706 7.75166 9.91303 9.67166 9.46713 9.98081Z" fill="inherit"></path><path d="M18.6888 4.54746C18.6753 4.60325 18.6232 4.64198 18.5631 4.64198C18.1173 4.62418 16.3445 4.45628 15.0317 2.90727C14.4494 2.22054 14.5697 1.21884 15.3003 0.671532C16.0308 0.125197 17.0966 0.238284 17.6788 0.924899C18.9917 2.47305 18.7707 4.13525 18.6888 4.54746Z" fill="inherit"></path></svg></svg>