<svg xmlns="http://www.w3.org/2000/svg" fill="gray" height="18" viewBox="0 0 24 24"  ><path d="M18.246,12.285L14.496,16.035L18.241,19.789L21.991,16.04L21.991,16.039L18.246,12.285ZM16.833,10.869C17.614,10.088 18.881,10.089 19.66,10.871L23.405,14.625C24.185,15.407 24.184,16.675 23.404,17.455L19.654,21.205C18.873,21.986 17.606,21.985 16.827,21.203L13.082,17.449C12.302,16.667 12.303,15.399 13.083,14.618L16.833,10.869Z"></path><path d="M12.02,4.173L8.27,7.923L12.015,11.678L15.765,7.928L12.02,4.173ZM10.608,2.757C11.388,1.976 12.655,1.977 13.435,2.759L17.18,6.513C17.959,7.295 17.959,8.563 17.178,9.344L13.428,13.094C12.648,13.874 11.381,13.874 10.601,13.092L6.856,9.337C6.076,8.556 6.077,7.288 6.858,6.507L10.608,2.757Z"></path><g transform="matrix(1,0,0,1,-12.4892,0)"><path d="M18.246,12.285L14.496,16.035L18.241,19.789L21.991,16.04L21.991,16.039L18.246,12.285ZM16.833,10.869C17.614,10.088 18.881,10.089 19.66,10.871L23.405,14.625C24.185,15.407 24.184,16.675 23.404,17.455L19.654,21.205C18.873,21.986 17.606,21.985 16.827,21.203L13.082,17.449C12.302,16.667 12.303,15.399 13.083,14.618L16.833,10.869Z"></path></g><path d="M19.66,10.871C18.881,10.089 17.614,10.088 16.833,10.869L13.083,14.618C12.303,15.399 12.302,16.667 13.082,17.449L16.827,21.203C17.606,21.985 18.873,21.986 19.654,21.205L23.404,17.455C24.184,16.675 24.185,15.407 23.405,14.625L19.66,10.871Z" fill="none"></path><path d="M13.435,2.759C12.655,1.977 11.388,1.976 10.608,2.757L6.858,6.507C6.077,7.288 6.076,8.556 6.856,9.337L10.601,13.092C11.381,13.874 12.648,13.874 13.428,13.094L17.178,9.344C17.959,8.563 17.959,7.295 17.18,6.513L13.435,2.759Z" fill="none"></path><path d="M7.171,10.908C6.391,10.126 5.125,10.126 4.344,10.906L0.594,14.656C-0.187,15.437 -0.187,16.705 0.592,17.487L4.337,21.241C5.117,22.023 6.384,22.023 7.165,21.243L10.914,17.493C11.695,16.712 11.696,15.444 10.916,14.663L7.171,10.908Z"></path></svg>