<svg width="48" height="48" viewBox="0 0 24 24" class="sc-bdfBwQ bEROaC" fill="#ccc" xmlns="http://www.w3.org/2000/svg" >
  <polygon points="0.0027 13.4322 0.0027 20.7471 5.8413 24 5.8413 19.6527 3.3981 18.2697 3.3981 13.4322"/>
  <polygon points="20.60397 13.4322 20.60397 18.2697 18.16167 19.6527 18.16167 24 23.99997 20.7471 23.99997 13.4322"/>
  <path d="M13.28451,12.438 L23.99751,12.438 C23.99751,12.438 23.99691,10.1232 23.03301,7.4868 L19.28031,8.9958 L14.43861,8.9958 L13.22841,10.0359 L12.12681,11.838 L11.72391,11.8353 L10.62201,10.0329 L9.41181,8.9931 L4.57011,8.9931 L0.87981,7.4934 C-0.03969,10.1268 0.00021,12.438 0.00021,12.438 L10.67811,12.438 L10.67811,15.0909 L9.87111,16.7061 L11.36031,19.3773 L12.66381,19.3773 L14.15331,16.7682 L13.28451,15.0909 L13.28451,12.438 Z"/>
  <path d="M13.22856,6.06063 L14.43906,7.69143 L19.28016,7.69143 L22.56486,6.35733 C21.19146,3.41613 18.49956,0.42813 13.22856,0.00183 L13.22856,6.06063 Z"/>
  <path d="M4.57017,7.68837 L9.41157,7.68837 L10.62177,6.05757 L10.62177,-3e-05 C5.31177,0.42027 2.65497,3.42057 1.32687,6.36987 L4.57017,7.68837 Z"/>
</svg>