<svg xmlns="http://www.w3.org/2000/svg" fill="rgb(0, 161, 219)" height="18" viewBox="0 0 24 24" class="sc-bdfBwQ hypAhS"><path d="M12,0 C18.627417,0 24,5.372583 24,12 C24,18.627417 18.627417,24 12,24 C5.372583,24 0,18.627417 0,12 C0,5.372583 5.372583,0 12,0 Z M1.71428571,12 C1.71428571,14.7063997 2.75954779,17.1686653 4.46839462,19.0051196 L7.46124607,15.1752089 L10.3497166,14.5610612 L10.5387986,17.6022835 L7.69755165,21.3453719 C9.00653796,21.9490064 10.4639478,22.2857143 12,22.2857143 C17.0712013,22.2857143 21.2852342,18.6157399 22.1310616,13.7868282 L16.415983,12.4240787 L17.9446205,17.3807606 L14.0290261,13.6090482 L11.7142857,20.4331948 L11.2434932,13.1610646 L5.30612245,14.5252204 L9.85913232,10.9158281 L3.66719511,9.71982651 L9.85913232,7.93237945 L6.04979357,3.60905622 C3.42609106,5.47295181 1.71428571,8.53656912 1.71428571,12 Z M13.105436,6.60237568 L12.8453539,8.27551888 L10.6057967,6.86776085 L11.8539434,8.85510792 L9.32441976,9.5861718 L11.8539434,10.520723 L10.6057967,11.7646874 L12.5118553,11.5158138 L12.7298665,13.7147741 L13.7361249,11.5158138 L15.3199953,12.9242457 L14.9808498,10.7160739 L16.9899448,11.114912 L15.4373275,9.5861718 L17.0983801,8.50660929 L14.9808498,8.62926438 L15.3199953,6.86776085 L13.8583238,8.27551888 L13.105436,6.60237568 Z M21.3679402,7.74683397 L17.4709304,9.71982651 L22.1683595,13.5588038 C22.245641,13.0504722 22.2857143,12.5299159 22.2857143,12 C22.2857143,10.4831976 21.9573928,9.04307874 21.3679402,7.74683397 Z M17.7942381,3.50040404 L16.415983,7.13251645 L21.1881993,7.37196436 C20.4008032,5.8117919 19.2277191,4.47950812 17.7942381,3.50040404 Z M12,1.71428571 C9.89721094,1.71428571 7.94180098,2.34529064 6.31279264,3.42827795 L11.7142857,5.89766892 L12.8453539,2.59843277 L14.2909812,5.89766892 L17.5980474,3.36966671 C15.9870585,2.32255804 14.0645641,1.71428571 12,1.71428571 Z"></path></svg>