<svg xmlns="http://www.w3.org/2000/svg" height="64" width="64" viewBox="0 0 24 24" fill="rgba(255, 255, 255, 0.6)" class="sc-bdvvtL hqAiMT"><path fill-rule="evenodd" clip-rule="evenodd" d="M12.6456 23.2H11.3544C8.92541 23.2 6.6735 22.4426 4.82636 21.1535C4.84901 21.0942 4.86082 21.0318 4.86067 20.9662C4.85655 19.4128 5.03842 16.7814 3.30302 15.0163C2.38131 14.0789 1.02121 14.1601 0.249223 14.2853L0.245534 14.2859C0.0846319 13.5323 0 12.7508 0 11.95C0 5.74097 5.08774 0.699997 11.3544 0.699997H12.6456C18.9123 0.699997 24 5.74097 24 11.95C24 12.7508 23.9154 13.5323 23.7544 14.2859L23.7508 14.2853C22.9788 14.1601 21.6187 14.0789 20.697 15.0163C18.9616 16.7814 19.1435 19.4128 19.1393 20.9662C19.1392 21.0318 19.151 21.0942 19.1736 21.1535C17.3265 22.4426 15.0747 23.2 12.6456 23.2ZM6.64294 5.12691C6.64294 5.12691 1.74595 9.39767 5.29024 14.8336C8.41837 19.6312 15.5217 19.0726 15.7428 16.8439C15.8669 15.5939 15.2919 14.5874 13.099 14.3868C10.6599 14.1637 8.865 13.576 8.09809 12.2343C7.32979 10.8901 7.36027 10.2239 7.36027 10.2239C7.36027 10.2239 9.24334 9.47995 8.87693 8.37598C8.53616 7.34938 7.72481 7.11876 7.36027 6.69051C6.9957 6.2623 6.64294 5.12691 6.64294 5.12691ZM17.48 16.0909C17.48 16.0909 22.377 11.8201 18.8327 6.38428C15.7046 1.58662 8.6013 2.14522 8.38013 4.37389C8.25604 5.6239 8.83102 6.63043 11.024 6.83102C13.4631 7.05411 15.258 7.64185 16.0249 8.98356C16.7932 10.3277 16.7627 10.9939 16.7627 10.9939C16.7627 10.9939 14.8796 11.7379 15.246 12.8419C15.5868 13.8685 16.3982 14.0991 16.7627 14.5273C17.1273 14.9555 17.48 16.0909 17.48 16.0909ZM12.0615 8.33537C13.2775 8.33537 14.2647 9.31356 14.2647 10.5184C14.2647 11.7232 13.2775 12.7013 12.0615 12.7013C10.8455 12.7013 9.85823 11.7232 9.85823 10.5184C9.85823 9.31356 10.8455 8.33537 12.0615 8.33537Z"></path></svg>