<svg xmlns="http://www.w3.org/2000/svg" viewBox="0 0 14 14" height="100%" width="100%" fill-rule="evenodd" clip-rule="evenodd" fill="#C69935" class="sc-bdfBwQ iUGhhA"><path d="M0,2C0,0.895 0.895,0 2,0L12,0C13.105,0 14,0.895 14,2L14,12C14,13.105 13.105,14 12,14L12,14C10.643,13.996 9.293,13.773 8.012,13.321C6.325,12.727 4.779,11.75 3.515,10.485C2.25,9.221 1.273,7.675 0.679,5.988C0.236,4.732 0.013,3.409 0,2.078L0,2ZM6.594,4.249L7.571,2.267C7.747,1.909 8.254,1.913 8.429,2.267L9.405,4.249L11.59,4.568C11.982,4.625 12.139,5.108 11.855,5.385L10.274,6.927L10.648,9.106C10.716,9.5 10.301,9.793 9.954,9.61L8,8.582L6.046,9.61C5.699,9.795 5.285,9.5 5.351,9.106L5.726,6.928L4.145,5.386C3.861,5.109 4.018,4.625 4.41,4.568L6.594,4.249Z"></path></svg>