<svg xmlns="http://www.w3.org/2000/svg" fill="rgb(232, 91, 69)" height="18" viewBox="0 0 24 24" class="sc-bdfBwQ eyUUUt"><path d="M11.354,23.25L12.646,23.25C15.075,23.25 17.327,22.493 19.174,21.203C19.151,21.144 19.139,21.082 19.139,21.016C19.14,20.884 19.139,20.743 19.138,20.596C19.126,19.02 19.11,16.681 20.697,15.066C21.619,14.129 22.979,14.21 23.751,14.335L23.755,14.336C23.915,13.582 24,12.801 24,12C24,5.791 18.912,0.75 12.646,0.75L11.354,0.75C5.088,0.75 0,5.791 0,12C0,12.801 0.085,13.582 0.246,14.336L0.249,14.335C1.021,14.21 2.381,14.129 3.303,15.066C4.89,16.681 4.874,19.02 4.862,20.596C4.861,20.743 4.86,20.884 4.861,21.016C4.861,21.082 4.849,21.144 4.826,21.203C6.674,22.493 8.925,23.25 11.354,23.25ZM10.089,13.516L16.968,6.13C17.132,5.957 17.398,5.957 17.562,6.13L18.552,7.175C18.716,7.348 18.716,7.628 18.552,7.801L10.386,16.545C10.222,16.718 9.956,16.718 9.792,16.545L5.416,11.921C5.338,11.838 5.293,11.726 5.293,11.608C5.293,11.49 5.338,11.377 5.416,11.294L6.406,10.25C6.57,10.077 6.836,10.077 7,10.25L10.089,13.516Z"></path></svg>