<svg xmlns="http://www.w3.org/2000/svg" fill="rgb(224, 57, 6)" height="18" viewBox="0 0 24 24" class="sc-bdfBwQ euZve"><path d="M12,0 C18.627417,0 24,5.372583 24,12 C24,18.627417 18.627417,24 12,24 C5.372583,24 0,18.627417 0,12 C0,5.372583 5.372583,0 12,0 Z M12,1.71428571 C9.88726765,1.71428571 7.9233115,2.35127231 6.28970568,3.44367135 C7.66079448,4.71214895 8.59840504,5.4423826 9.1044977,5.63669301 C9.92266021,5.95082025 10.901358,5.32256576 12.1241789,5.32256576 C13.3469998,5.32256576 15.9551346,7.02272615 16.9636224,7.54937473 C17.6359475,7.90047378 17.779524,8.40257189 17.3943518,9.05566907 C16.1804548,11.0654463 15.3926047,12.3124824 15.0308016,12.7967774 C14.488097,13.5232199 13.9793249,13.8549463 13.3910778,13.4189771 C12.9989131,13.1283309 12.9989131,12.6189822 13.3910778,11.890931 C14.1224239,10.8013011 14.488097,10.0832811 14.488097,9.73687091 C14.488097,9.21725561 14.0732862,9.21725561 13.6617874,9.37003587 C13.2502886,9.52281613 12.6616744,9.8393743 11.9483302,9.8393743 C11.4727674,9.8393743 10.9795531,9.64841163 10.4686873,9.2664863 C10.0374367,8.9045266 9.77375323,8.8145607 9.67763694,8.9965886 C9.58152064,9.17861651 9.69989148,9.45954507 10.0327495,9.8393743 C10.3365339,10.1762446 10.6469423,10.3720196 10.9639744,10.4266994 C11.4395226,10.5087191 13.1312429,10.302835 13.0320276,10.874652 C12.961643,11.2803067 12.6478543,11.8694135 12.1241789,12.5227978 C11.8901344,12.8148126 11.4601036,12.6205862 10.9639744,13.2797388 C10.1736504,14.3297556 10.8681433,14.9828892 9.92165879,15.9285911 C8.97517425,16.874293 9.62680302,17.8220297 8.86894258,17.9870645 C8.11108213,18.1520993 7.26339279,16.7132501 5.96448852,15.2916844 C5.17071369,14.4229498 4.66044122,13.535965 4.4336711,12.6307302 L4.37885368,12.3833955 L1.85605111,10.2883932 C1.76281354,10.8450492 1.71428571,11.4168574 1.71428571,12 C1.71428571,17.6806431 6.31935686,22.2857143 12,22.2857143 C17.6806431,22.2857143 22.2857143,17.6806431 22.2857143,12 C22.2857143,6.31935686 17.6806431,1.71428571 12,1.71428571 Z M12.0677728,16.4799839 L13.7394384,18.0388373 C14.2010561,18.4693028 14.22631,19.1924791 13.7958445,19.6540968 C13.365379,20.1157145 12.6422027,20.1409684 12.180585,19.7105029 L10.5089194,18.1516495 C10.0473017,17.721184 10.0220478,16.9980077 10.4525133,16.53639 C10.8829788,16.0747723 11.6061551,16.0495184 12.0677728,16.4799839 Z M13.2960442,13.8458939 L16.221459,16.5738873 C16.6830767,17.0043528 16.7083305,17.7275291 16.2778651,18.1891468 C15.8473996,18.6507645 15.1242233,18.6760184 14.6626056,18.2455529 L11.7371908,15.5175595 C11.2755731,15.087094 11.2503192,14.3639177 11.6807847,13.9023 C12.1112501,13.4406823 12.8344264,13.4154284 13.2960442,13.8458939 Z M16.0509835,12.6847488 L18.4260406,14.7732962 C18.8863875,15.1781102 18.9314058,15.8794615 18.5265919,16.3398084 L18.5048415,16.3638262 L18.5048415,16.3638262 C18.0746632,16.825136 17.3519694,16.850373 16.8906597,16.4201947 L16.8901024,16.4196747 L14.7131667,14.3869313 L16.0509835,12.6847488 Z M17.6672031,10.15763 L19.6261009,11.9636183 C20.0875276,12.3890265 20.1167264,13.1079483 19.6913181,13.569375 L19.6869251,13.5741129 C19.2576268,14.034479 18.5364112,14.0596644 18.0760451,13.6303661 C18.0752907,13.6296626 18.0745373,13.6289581 18.0737848,13.6282526 L16.4354053,12.0921014 L17.6672031,10.15763 Z"></path></svg>